<?xml version="1.0" ?><svg enable-background="new 0 0 64 64" id="Слой_1" version="1.1" viewBox="0 0 64 64" xml:space="preserve" xmlns="http://www.w3.org/2000/svg" xmlns:xlink="http://www.w3.org/1999/xlink"><g id="row_1"><g id="armchair"><path d="M49,10c0-0.9,0-1.7-0.1-2.5c0-0.8-0.6-1.5-1.3-1.8C42.7,3.9,37.5,3,32,3S21.3,3.9,16.4,5.7    c-0.8,0.3-1.3,1-1.3,1.8C15,8.3,15,9.1,15,10c0,14.6,6.6,27.6,17,36.2C42.4,37.6,49,24.6,49,10z" fill="#EF5350"/><path d="M46.5,6.7L46.5,6.7c-1.9,0-3.5,1.2-4.1,3C40.9,13.9,36.8,17,32,17s-8.9-3.1-10.4-7.4c-0.6-1.8-2.3-3-4.1-3    h0c-3.4,0-5.8,3.3-4.8,6.5l5.9,19.7h26.7l5.9-19.7C52.3,9.9,49.9,6.7,46.5,6.7z" fill="#E53935"/><path d="M21,29.3l0,6.1c-0.3,0.7-0.7,1.3-1.2,1.9c-1.9,0.8-3.8,0.9-5.7,0.6c0-3.2-2.8-11.7-5.3-10.2    c-0.1,0.1-0.2,0.1-0.4,0.2c-1.1,0.6-2.4-0.3-2.2-1.5c0.1-0.8,0.3-1.5,0.6-2.2c0.7-1.7,2.2-2.9,4-3.1c0.9-0.1,1.8-0.1,2.7,0    c1.7,0.3,3.2,0.9,4.5,1.9C20,24.5,21,26.8,21,29.3z M43,29.3l0,6.1c0.3,0.7,0.7,1.3,1.2,1.9c1.9,0.8,3.8,0.9,5.7,0.6    c0-3.2,2.8-11.7,5.3-10.2c0.1,0.1,0.2,0.1,0.4,0.2c1.1,0.6,2.4-0.3,2.2-1.5c-0.1-0.8-0.3-1.5-0.6-2.2c-0.7-1.7-2.2-2.9-4-3.1    c-0.9-0.1-1.8-0.1-2.7,0C48.8,21.4,47.3,22,46,23C44,24.5,43,26.8,43,29.3z" fill="#E57373"/><path d="M55.4,27.8c-0.6-0.6-1.5-0.6-2.1,0c-2.9,2.8-4.7,6.4-5.1,10.3H15.9c-0.5-3.9-2.2-7.5-5.1-10.3    c-0.6-0.6-1.5-0.5-2.1,0c-0.6,0.6-0.5,1.5,0,2.1C11.5,32.5,13,36.1,13,40c0,1.3-1.4,12.1-1.4,12.1c-0.2,1.7,0.2,3.4,1.2,4.8    c-0.3,1-0.7,2-1.4,2.9c-0.3,0.4-0.2,1.1,0.2,1.4c0.2,0.1,0.4,0.2,0.6,0.2c0.3,0,0.6-0.1,0.8-0.4c0.7-0.9,1.2-1.9,1.5-2.9    c1.2,0,2.6-1.2,4.1-1.2h26.9c1,0,2,0.6,3,0.9c0.4,1.3,1.1,2.6,2,3.6c0.2,0.2,0.5,0.3,0.8,0.3c0.2,0,0.5-0.1,0.7-0.2    c0.4-0.4,0.5-1,0.1-1.4c-0.6-0.7-1.1-1.5-1.4-2.4c0.1-0.1,0.1-0.1,0.2-0.2c1.3-1.5,1.9-3.5,1.7-5.5c0,0-1.4-10.8-1.4-12.1    c0-3.9,1.5-7.5,4.3-10.1C55.9,29.3,56,28.4,55.4,27.8z" fill="#4E342E"/><path d="M45.5,57H18.5c-2.4,0-4.3-2.1-4-4.5L16,41h32l1.4,11.5C49.7,54.9,47.9,57,45.5,57z" fill="#E53935"/><path d="M46,33.7c-8.8-5-19.2-5-28,0c-1.3,0.7-2,2-2,3.5c0,1.4,0,3.3,0,4.8c0,1.7,1.3,3,3,3h26c1.7,0,3-1.3,3-3    c0-1.5,0-3.4,0-4.8C48,35.8,47.2,34.4,46,33.7z" fill="#EF5350"/></g></g></svg>