<?xml version="1.0" ?><svg enable-background="new 0 0 64 64" id="Слой_1" version="1.1" viewBox="0 0 64 64" xml:space="preserve" xmlns="http://www.w3.org/2000/svg" xmlns:xlink="http://www.w3.org/1999/xlink"><g id="row_4"><g id="bed"><path d="M53.3,17.7c-1.3-1.3-2.1-2.9-2.3-4.8c-0.1-0.5-0.5-0.9-1-0.9h-5.4C41.1,9.5,36.7,8,32,8s-9.1,1.5-12.6,4    h-5.4c-0.5,0-0.9,0.4-1,0.9c-0.2,1.7-0.9,3.2-1.9,4.4c-1.3,1.5-3.1,2.5-5.2,2.7C5.4,20,5,20.4,5,20.9V42h8.6    c3.9,6,10.7,10,18.4,10s14.5-4,18.4-10H59V20.9c0-0.5-0.4-0.9-0.9-1C56.3,19.8,54.6,18.9,53.3,17.7z" fill="#FFE0B2"/><path d="M32,50c-6.8,0-13-3.4-16.8-9.1L14.6,40H7V21.8c3.9-0.8,7-3.9,7.8-7.8H20l0.5-0.4C23.9,11.3,27.9,10,32,10    s8.1,1.3,11.5,3.6L44,14h5.2c0.8,3.9,3.9,7,7.8,7.8V40h-7.6l-0.6,0.9C45,46.6,38.8,50,32,50z" fill="#FFF3E0"/><g><path d="M13.8,33.6c-0.7,0.1-1.3-0.5-1.1-1.2c0.2-1.1,0.3-2.3,0.3-3.4s-0.1-2.3-0.3-3.4c-0.1-0.7,0.4-1.3,1.1-1.2     c2.7,0.4,5.4,0.6,8.2,0.6s5.5-0.2,8.2-0.6c0.7-0.1,1.3,0.5,1.1,1.2C31.1,26.7,31,27.8,31,29s0.1,2.3,0.3,3.4     c0.1,0.7-0.4,1.3-1.1,1.2C27.5,33.2,24.8,33,22,33S16.5,33.2,13.8,33.6z" fill="#81D4FA"/><path d="M33.8,33.6c-0.7,0.1-1.3-0.5-1.1-1.2c0.2-1.1,0.3-2.3,0.3-3.4s-0.1-2.3-0.3-3.4c-0.1-0.7,0.4-1.3,1.1-1.2     c2.7,0.4,5.4,0.6,8.2,0.6s5.5-0.2,8.2-0.6c0.7-0.1,1.3,0.5,1.1,1.2C51.1,26.7,51,27.8,51,29s0.1,2.3,0.3,3.4     c0.1,0.7-0.4,1.3-1.1,1.2C47.5,33.2,44.8,33,42,33S36.5,33.2,33.8,33.6z" fill="#81D4FA"/></g><path d="M61.6,45.3L61.6,45.3c0,0-1.3-2.4-1.6-3.3c-0.7-1.7-2.3-6.9-2.3-6.9c-0.4-1.2-1.6-2.1-2.8-2.1H9.2    c-1.3,0-2.4,0.8-2.8,2.1c0,0-1.6,5.3-2.3,6.9c-0.3,0.8-1.6,3.3-1.6,3.3l0,0C2.1,45.8,2,46.4,2,47c0,1.3,0.6,2.4,1.5,3.1    C4.4,49.4,5,48.3,5,47h1.7v-5h50.7v5H59c0,1.3,0.6,2.4,1.5,3.1c0.9-0.7,1.5-1.8,1.5-3.1C62,46.4,61.9,45.8,61.6,45.3z" fill="#B3E5FC"/><g><polygon fill="#6D4C41" points="9,55 7,55 7,52 10,52    "/><polygon fill="#6D4C41" points="55,55 57,55 57,52 54,52    "/></g><path d="M58,52H6c-0.6,0-1-0.4-1-1v-8c0-0.6,0.4-1,1-1h52c0.6,0,1,0.4,1,1v8C59,51.6,58.6,52,58,52z" fill="#FFCC80"/></g></g></svg>