<svg id="Layer_1" data-name="Layer 1" xmlns="http://www.w3.org/2000/svg" viewBox="0 0 48 48"><defs><style>.cls-1{fill:#dd8561;}.cls-2{fill:#f19a76;}.cls-3{fill:#cb734c;}</style></defs><title>furniture, furnishing, armchair, chair, seat, interior</title><path class="cls-1" d="M11.27,5.4H36.73a4.9,4.9,0,0,1,4.9,4.9V29.88a0,0,0,0,1,0,0H6.38a0,0,0,0,1,0,0V10.29A4.9,4.9,0,0,1,11.27,5.4Z"/><path class="cls-2" d="M17.15.5H30.85a5.88,5.88,0,0,1,5.88,5.88v23.5a0,0,0,0,1,0,0H11.27a0,0,0,0,1,0,0V6.38A5.88,5.88,0,0,1,17.15.5Z"/><path class="cls-1" d="M16.17,25H31.83a4.9,4.9,0,0,1,4.9,4.9v6.85a0,0,0,0,1,0,0H11.27a0,0,0,0,1,0,0V29.88A4.9,4.9,0,0,1,16.17,25Z"/><circle class="cls-3" cx="41.14" cy="24.49" r="5.39"/><rect class="cls-3" x="35.75" y="24" width="5.88" height="12.73"/><path class="cls-1" d="M43.58,24.49a2.46,2.46,0,0,1-1.95,2.4,2.72,2.72,0,0,1-.49.05,2.45,2.45,0,0,1-2.45-2.45A2.45,2.45,0,0,1,41.14,22,2.45,2.45,0,0,1,43.58,24.49Z"/><path class="cls-1" d="M41.63,23V36.73H38.69V24.49A2.41,2.41,0,0,1,39.18,23Z"/><circle class="cls-3" cx="6.86" cy="24.49" r="5.39"/><rect class="cls-3" x="6.38" y="24" width="5.88" height="12.73" transform="translate(18.63 60.73) rotate(180)"/><path class="cls-1" d="M4.42,24.49a2.45,2.45,0,0,0,2,2.4,2.52,2.52,0,0,0,.48.05,2.45,2.45,0,0,0,2.45-2.45A2.45,2.45,0,0,0,6.86,22,2.45,2.45,0,0,0,4.42,24.49Z"/><path class="cls-1" d="M6.37,23V36.73H9.31V24.49A2.41,2.41,0,0,0,8.82,23Z"/><rect class="cls-3" x="6.38" y="32.81" width="35.25" height="10.77"/><rect class="cls-1" x="6.38" y="39.67" width="35.25" height="7.83"/><rect class="cls-1" x="15.19" y="18.13" width="17.63" height="1.96"/><rect class="cls-1" x="15.19" y="12.25" width="17.63" height="1.96"/><rect class="cls-1" x="15.19" y="6.38" width="17.63" height="1.96"/><rect class="cls-1" x="6.38" y="32.81" width="2.94" height="14.69"/><rect class="cls-1" x="38.69" y="32.81" width="2.94" height="14.69"/></svg>