<svg width="244" height="82" viewBox="0 0 244 82" fill="none" xmlns="http://www.w3.org/2000/svg">
<path d="M0 32.952V65.9043H7.82974H15.6595V57.117C15.6595 50.3435 16.6382 47.2313 19.7701 44.6684C23.8807 41.1901 23.8807 41.3732 28.7743 46.6821C31.5147 49.7943 36.7998 55.2863 40.3232 58.9477L46.7827 65.5382L75.3612 65.7212H104.136L103.353 45.4007C102.765 25.2632 102.765 25.2632 96.3058 19.9542C89.0633 13.9129 77.1229 12.8145 65.7698 17.2082C57.1571 20.6865 55.9826 22.7002 59.7018 29.1076L62.6379 34.7827L69.0975 31.1214C76.5357 26.9108 82.7995 26.3616 85.9314 30.0229C87.6931 32.0367 86.3229 32.5859 77.3187 33.3182C64.3996 34.4166 56.7656 39.7256 56.7656 47.9636C56.7656 50.7096 56.1784 53.0895 55.3954 52.9065C54.4167 52.9065 49.5231 47.9636 44.238 41.9224L34.6466 30.9383L40.3232 25.0801C43.4551 21.7849 50.3061 14.8283 55.5912 9.51931L65.3783 -0.000228643H55.7869C46.3912 -0.000228643 45.804 0.365908 30.9275 14.096L15.6595 28.3753V14.096V-0.000228643H7.82974H0V32.952ZM88.0846 47.2313C88.0846 50.1604 83.191 53.0895 78.2974 53.0895C71.8379 53.0895 69.8804 51.4419 72.6208 48.1467C74.9698 45.5837 88.0846 44.8515 88.0846 47.2313Z" fill="black"/>
<path d="M119.012 18.8558C110.008 24.5309 107.267 30.206 108.246 41.7393C109.421 56.934 121.752 65.7212 139.369 63.5244C145.829 62.7921 146.612 62.9752 144.654 65.172C141.327 69.0165 126.842 68.4673 120.969 64.2567L116.272 60.5953L112.748 66.2704C109.225 71.5794 109.225 71.9455 112.748 75.2408C117.838 79.8175 132.714 83.1127 141.522 81.6482C145.633 80.9159 151.701 77.9868 155.225 75.0577L161.488 69.9318L162.076 42.4716L162.663 15.0114H144.067C128.016 14.8283 124.689 15.3775 119.012 18.8558ZM142.893 30.7552C147.982 34.5997 148.765 42.8377 144.263 47.2313C142.501 48.6959 138.391 49.9774 135.063 49.9774C127.625 49.9774 122.927 45.7668 122.927 39.1764C122.927 33.6843 129.191 27.46 135.063 27.46C137.02 27.46 140.544 28.9245 142.893 30.7552Z" fill="black"/>
<path d="M170.296 29.6568C170.296 60.2291 175.386 65.7212 203.964 65.7212L221.19 65.5381V40.0917V14.6452H213.36H205.53V30.5721C205.53 48.5128 204.747 50.5265 197.505 52.1742C188.5 54.1879 185.956 49.6112 185.956 30.9383V14.6452H178.126H170.296V29.6568Z" fill="black"/>
<path d="M228.237 53.456C225.693 56.9343 225.497 58.0327 227.846 61.3279C231.761 67.003 240.178 67.1861 242.918 61.694C247.812 51.8083 234.893 44.4856 228.237 53.456Z" fill="black"/>
</svg>
