<?xml version="1.0" ?><svg enable-background="new 0 0 64 64" id="Слой_1" version="1.1" viewBox="0 0 64 64" xml:space="preserve" xmlns="http://www.w3.org/2000/svg" xmlns:xlink="http://www.w3.org/1999/xlink"><g id="row_4"><g id="kitchen_x5F_table"><g><path d="M26.4,15.3c-3.6,0.9-7.3,0.9-10.9,0C17.1,20.9,18,26.9,18,33c0,0.3,0,0.7,0,1H24c0-0.3,0-0.7,0-1     C24,26.9,24.9,20.9,26.4,15.3z" fill="#FF8F00"/><g><path d="M27,38v-3H15v3C18.9,37,23.1,37,27,38z" fill="#FFCC80"/><path d="M26.8,15.2L26.1,33H15.9l-0.7-17.8c-0.2-0.1-0.8-0.2-2-0.7L14,34h14l0.8-19.5      C27.6,15,27.1,15.1,26.8,15.2z" fill="#FFCC80"/></g><path d="M26.9,10H15.1c-1.1,0-2,0.9-2,2.1l0.1,2.5c5,2,10.6,2,15.6,0l0.1-2.5C29,10.9,28.1,10,26.9,10z" fill="#FFE0B2"/><g><polygon fill="#FFB74D" points="15,53 14,53 14,35 16,35     "/><polygon fill="#FFB74D" points="27,53 28,53 28,35 26,35     "/></g><path d="M13,35c0-1.1,0.9-2,2-2h12c1.1,0,2,0.9,2,2H13z" fill="#FF6D00"/></g><g><path d="M48.4,15.3c-3.6,0.9-7.3,0.9-10.9,0C39.1,20.9,40,26.9,40,33c0,0.3,0,0.7,0,1H46c0-0.3,0-0.7,0-1     C46,26.9,46.9,20.9,48.4,15.3z" fill="#FF8F00"/><g><path d="M49,38v-3H37v3C40.9,37,45.1,37,49,38z" fill="#FFCC80"/><path d="M48.8,15.2L48.1,33H37.9l-0.7-17.8c-0.2-0.1-0.8-0.2-2-0.7L36,34h14l0.8-19.5      C49.6,15,49.1,15.1,48.8,15.2z" fill="#FFCC80"/></g><path d="M48.9,10H37.1c-1.1,0-2,0.9-2,2.1l0.1,2.5c5,2,10.6,2,15.6,0l0.1-2.5C51,10.9,50.1,10,48.9,10z" fill="#FFE0B2"/><g><polygon fill="#FFB74D" points="37,53 36,53 36,35 38,35     "/><polygon fill="#FFB74D" points="49,53 50,53 50,35 48,35     "/></g><path d="M35,35c0-1.1,0.9-2,2-2h12c1.1,0,2,0.9,2,2H35z" fill="#FF6D00"/></g><rect fill="#FFE0B2" height="2" width="58" x="3" y="24"/><rect fill="#FFCC80" height="4" width="50" x="7" y="26"/><rect fill="#FFB74D" height="3" width="18" x="23" y="26"/><g><polygon fill="#FFB74D" points="9,53 7,53 7,26 10,26    "/><polygon fill="#FFB74D" points="55,53 57,53 57,26 54,26    "/></g></g></g></svg>