<?xml version="1.0" ?><svg enable-background="new 0 0 64 64" id="Слой_1" version="1.1" viewBox="0 0 64 64" xml:space="preserve" xmlns="http://www.w3.org/2000/svg" xmlns:xlink="http://www.w3.org/1999/xlink"><g id="row_2"><g id="wardrobe"><path d="M53,5H11L9.9,3.9C9.5,3.5,9.8,3,10.2,3h43.6c0.4,0,0.7,0.5,0.4,0.9L53,5z" fill="#FFA726"/><rect fill="#FFB74D" height="52" width="42" x="11" y="5"/><path d="M54,61H10v-3c0.4-0.4,0.6-0.6,1-1h42c0.4,0.4,0.6,0.6,1,1V61z" fill="#FFCC80"/><rect fill="#37474F" height="48" width="18" x="14" y="6"/><rect fill="#FB8C00" height="1" width="10" x="14" y="11"/><rect fill="#CFD8DC" height="1" width="10" x="14" y="18"/><g><rect fill="#FFA726" height="48" width="18" x="32" y="6"/><rect fill="#FFB74D" height="44" width="14" x="34" y="8"/><rect fill="#4E342E" height="4" width="1" x="48" y="28"/></g><g><rect fill="#FFCC80" height="48" width="20" x="22" y="6"/><rect fill="#FFB74D" height="44" width="16" x="24" y="8"/><rect fill="#4E342E" height="4" width="1" x="23" y="28"/></g><rect fill="#FBE9E7" height="4" width="6" x="16" y="7"/><rect fill="#E6EE9C" height="4" width="6" x="16" y="44"/><rect fill="#FBE9E7" height="6" width="8" x="14" y="48"/><rect fill="#4E342E" height="4" width="1" x="19" y="19.5"/><path d="M18,38V24c0-0.8,0.7-1.5,1.5-1.5S21,23.2,21,24v14C21,38.8,18,38.8,18,38z" fill="#FFEBEE"/></g></g></svg>